<?xml version="1.0" standalone="no"?>
<!DOCTYPE svg PUBLIC "-//W3C//DTD SVG 20010904//EN"
 "http://www.w3.org/TR/2001/REC-SVG-20010904/DTD/svg10.dtd">
<svg version="1.0" xmlns="http://www.w3.org/2000/svg"
 width="755.000000pt" height="755.000000pt" viewBox="0 0 755.000000 755.000000"
 preserveAspectRatio="xMidYMid meet">
<metadata>
Created by potrace 1.11, written by Peter Selinger 2001-2013
</metadata>
<g transform="translate(0.000000,755.000000) scale(0.100000,-0.100000)"
fill="#000000" stroke="none">
<path d="M3825 7088 c-27 -5 -104 -11 -170 -13 -66 -2 -145 -6 -175 -9 -30 -3
-83 -8 -117 -11 -34 -3 -70 -7 -80 -9 -10 -2 -38 -7 -63 -10 -51 -7 -73 -11
-185 -32 -44 -8 -96 -17 -115 -20 -19 -3 -40 -10 -46 -15 -6 -5 -13 -6 -16 -3
-3 3 -26 0 -49 -7 -24 -7 -53 -14 -64 -16 -98 -18 -467 -134 -493 -156 -13
-10 -14 -9 -8 1 4 7 -9 3 -29 -8 -19 -11 -39 -20 -44 -20 -5 0 -26 -8 -47 -17
-22 -9 -41 -17 -44 -18 -3 -1 -18 -7 -33 -13 -16 -7 -30 -12 -33 -12 -8 0
-194 -93 -249 -125 -179 -102 -420 -262 -528 -350 -6 -5 -46 -37 -87 -70 -41
-32 -86 -69 -100 -81 -14 -12 -47 -41 -75 -65 -116 -101 -299 -284 -390 -389
-26 -30 -60 -68 -74 -85 -61 -69 -213 -285 -261 -370 -63 -112 -135 -269 -144
-312 -1 -10 -6 -25 -9 -33 -9 -22 -33 -117 -42 -165 -2 -11 -6 -31 -9 -45 -3
-13 -8 -42 -11 -65 -3 -22 -8 -51 -10 -65 -26 -149 -26 -698 0 -741 2 -3 7
-28 10 -56 10 -92 53 -239 119 -410 100 -263 105 -281 90 -396 -9 -72 45 -177
137 -268 68 -66 99 -83 169 -92 60 -8 109 -36 163 -91 84 -87 126 -101 297
-100 123 0 254 29 340 75 95 51 204 167 282 301 90 154 79 206 -111 538 -39
68 -71 125 -71 127 0 2 -5 9 -10 16 -6 7 -38 55 -72 107 -123 187 -263 298
-383 303 -32 1 -121 -15 -152 -28 -19 -8 -36 -15 -38 -15 -5 0 4 481 10 490 3
5 1 10 -5 10 -6 0 -8 5 -4 11 3 6 8 48 10 93 6 171 16 242 54 406 44 188 44
195 -7 187 -34 -4 -111 -42 -186 -92 l-28 -18 32 59 c17 32 38 66 45 75 8 8
14 19 14 22 0 4 12 26 27 50 15 23 36 58 46 77 11 19 22 37 26 40 3 3 20 25
36 50 16 25 32 47 35 50 3 3 22 28 42 57 37 52 55 74 114 142 17 20 39 47 50
60 37 46 200 207 244 241 25 19 50 40 56 46 7 5 45 33 85 60 41 27 76 52 77
57 2 4 7 7 12 7 4 0 51 27 103 60 53 33 101 60 106 60 6 0 11 5 11 10 0 6 6
10 14 10 7 0 19 7 26 15 7 8 16 12 21 9 5 -3 9 -2 9 3 0 4 10 13 23 19 23 11
120 64 172 95 62 36 283 147 355 178 41 18 84 36 95 42 30 14 226 76 260 83
17 3 48 10 70 15 66 16 104 23 203 35 l43 5 -38 -69 c-25 -46 -35 -72 -28 -79
14 -13 68 -20 209 -26 65 -3 122 -8 127 -11 5 -3 9 0 9 6 0 6 5 8 10 5 6 -4
50 -8 98 -10 243 -10 420 -27 587 -57 33 -5 70 -10 83 -10 12 0 25 -5 28 -9 3
-5 9 -7 13 -5 4 3 57 -4 117 -15 60 -11 158 -29 217 -39 60 -11 116 -21 125
-24 9 -3 31 -8 47 -10 17 -3 44 -9 60 -14 17 -5 42 -8 57 -7 25 2 27 -1 22
-24 -9 -38 -60 -125 -121 -208 -29 -40 -53 -77 -53 -82 0 -6 -4 -11 -8 -11
-12 0 -78 -146 -88 -190 -15 -72 4 -174 44 -240 27 -44 67 -105 77 -117 6 -6
30 -35 55 -64 67 -78 339 -349 405 -403 83 -67 129 -86 201 -81 32 2 66 5 74
8 136 35 301 122 380 199 57 56 80 86 115 156 54 109 78 208 76 316 0 67 -21
121 -66 176 -25 31 -38 113 -26 170 16 76 -27 176 -114 262 -77 77 -131 102
-225 105 -53 1 -89 8 -125 24 -27 12 -53 23 -57 23 -4 1 -13 7 -19 14 -7 6
-17 12 -21 12 -9 0 -148 97 -163 115 -5 6 -26 22 -45 35 -19 14 -44 32 -55 42
-11 9 -30 25 -41 35 -29 24 -63 50 -169 127 -49 36 -94 69 -100 74 -5 4 -53
36 -105 70 -131 87 -136 90 -194 147 -55 54 -137 115 -155 115 -6 0 -11 5 -11
10 0 6 -9 10 -19 10 -11 0 -22 4 -26 9 -5 10 -86 36 -160 53 -59 13 -212 17
-270 6z"/>
<path d="M6317 5173 c-5 -8 -2 -43 3 -50 2 -2 3 -6 5 -10 2 -8 7 -20 32 -83
56 -136 107 -259 116 -280 6 -14 11 -27 12 -30 1 -3 5 -12 8 -20 46 -104 122
-378 153 -550 2 -14 7 -36 9 -50 6 -28 10 -53 20 -125 4 -27 9 -61 11 -75 11
-73 17 -286 17 -540 -1 -444 -17 -619 -80 -865 -8 -33 -17 -67 -18 -75 -7 -29
-86 -286 -104 -340 -11 -30 -38 -109 -61 -175 -22 -66 -45 -129 -50 -140 -5
-11 -19 -45 -30 -75 -11 -30 -25 -64 -30 -75 -5 -11 -25 -57 -44 -101 -43 -98
-82 -168 -101 -184 -24 -20 -28 11 -10 75 17 58 21 78 30 150 2 22 7 51 10 65
8 39 17 201 19 366 2 83 6 155 9 161 4 6 4 13 0 16 -3 4 -5 40 -4 82 1 83 2
95 1 128 0 12 1 46 2 75 2 28 1 52 -2 52 -3 0 -5 51 -6 113 -1 133 -15 345
-29 432 -3 17 -7 46 -10 66 -3 20 -7 51 -9 70 -10 90 -18 152 -22 172 -2 11
-6 39 -9 62 -3 22 -8 51 -10 65 -3 14 -7 43 -10 65 -3 22 -7 51 -10 65 -3 14
-8 45 -11 70 -3 25 -8 47 -9 50 -2 3 -7 33 -10 65 -4 33 -9 63 -11 66 -2 4 -6
24 -9 45 -8 49 -34 132 -44 139 -18 10 -56 -104 -96 -286 -2 -12 -9 -36 -14
-53 -77 -246 -99 -314 -127 -387 -18 -48 -42 -109 -54 -135 -12 -27 -25 -58
-30 -69 -23 -56 -227 -459 -262 -520 -22 -38 -70 -108 -106 -155 -66 -85 -353
-378 -427 -435 -21 -16 -43 -35 -49 -40 -9 -9 -138 -108 -211 -163 -20 -14
-202 -131 -290 -186 -203 -125 -198 -116 -199 -351 -2 -174 12 -293 40 -347 8
-15 12 -28 8 -28 -9 0 54 -108 89 -155 54 -70 187 -185 215 -185 5 0 12 -4 14
-8 4 -9 112 -58 151 -67 15 -4 29 -11 32 -15 3 -5 178 -8 390 -9 299 0 394 3
430 13 40 13 146 72 191 108 51 41 174 171 202 213 17 28 38 58 44 68 7 9 19
31 28 47 56 111 84 160 91 160 11 0 49 -50 49 -65 0 -22 103 -119 151 -141 97
-47 133 -61 184 -70 14 -2 37 -7 53 -10 15 -3 86 -8 158 -10 141 -4 182 3 279
53 48 24 117 67 142 88 120 104 208 222 255 343 28 72 73 218 82 266 3 11 12
52 21 89 9 38 18 87 21 108 7 48 12 74 14 74 2 0 5 22 14 100 4 33 9 69 11 80
26 123 26 809 0 1005 -2 14 -4 27 -5 30 -1 3 -2 8 -1 13 1 4 -6 42 -15 85 -9
42 -18 91 -21 107 -3 17 -9 38 -14 48 -5 9 -7 17 -5 17 3 0 -1 18 -9 40 -8 22
-14 41 -14 43 0 1 -2 9 -5 17 -2 8 -10 33 -16 55 -17 57 -112 314 -145 390
-54 123 -119 259 -184 382 -50 93 -182 314 -198 331 -7 7 -13 17 -13 22 0 5
-6 15 -13 22 -7 7 -28 36 -47 63 -87 128 -172 227 -335 390 -137 137 -161 159
-168 148z"/>
<path d="M4240 4917 c-3 -3 -21 -8 -42 -11 -145 -23 -276 -113 -333 -230 -31
-64 -35 -82 -40 -176 -4 -92 9 -132 60 -188 86 -94 208 -167 417 -248 145 -56
161 -62 258 -108 84 -40 202 -107 220 -126 3 -3 23 -18 45 -34 46 -34 181
-168 210 -210 32 -45 79 -86 95 -83 17 3 36 39 44 82 3 17 8 41 11 55 5 22 18
209 16 235 -6 120 -17 197 -41 285 -11 41 -22 82 -24 90 -3 8 -11 31 -19 50
-20 49 -29 74 -27 79 1 2 -2 7 -7 10 -4 3 -21 32 -37 63 -88 178 -270 368
-386 403 -14 4 -29 11 -35 15 -9 7 -51 17 -140 36 -40 8 -239 17 -245 11z"/>
<path d="M3906 3553 c-2 -2 -16 -6 -32 -9 -43 -7 -92 -32 -162 -81 -173 -123
-302 -311 -302 -442 0 -43 4 -52 46 -93 51 -51 123 -94 174 -104 50 -9 153 -7
197 5 21 6 50 12 64 15 82 14 218 119 240 184 7 21 13 87 13 147 3 222 -24
316 -100 354 -37 19 -127 34 -138 24z"/>
<path d="M2358 3280 c-21 -4 -61 -21 -88 -38 -28 -18 -53 -32 -56 -32 -3 0
-23 -19 -45 -42 -179 -188 -233 -487 -137 -763 23 -67 117 -216 151 -240 12
-8 19 -15 15 -15 -6 0 78 -83 122 -120 14 -12 38 -33 53 -46 83 -74 282 -183
398 -219 74 -23 190 -46 200 -39 5 3 9 1 9 -3 0 -5 21 -6 48 -3 60 6 61 21 8
115 -86 154 -127 235 -122 235 4 0 0 13 -8 29 -8 15 -17 40 -20 55 -3 14 -7
34 -10 44 -9 32 -13 69 -31 277 -3 33 -8 98 -10 145 -3 47 -7 105 -10 130 -2
25 -7 74 -10 110 -22 232 -77 336 -215 401 -47 23 -166 32 -242 19z"/>
<path d="M1642 1392 c-10 -20 -3 -164 12 -232 22 -105 90 -280 115 -300 3 -3
13 -18 21 -34 21 -40 155 -177 210 -214 71 -47 177 -99 268 -131 82 -29 84
-29 314 -30 127 0 239 4 249 9 9 6 35 12 56 16 38 5 134 30 163 41 8 3 20 7
25 9 6 1 28 10 50 20 22 10 45 18 50 20 6 1 33 15 62 30 101 57 217 181 269
290 19 38 36 81 39 95 3 13 7 36 10 50 12 55 14 161 3 185 -15 31 -45 34 -143
10 -34 -8 -159 -35 -190 -40 -55 -10 -289 -20 -480 -20 -206 1 -351 11 -415
29 -8 3 -32 7 -53 11 -22 3 -56 12 -78 19 -22 8 -40 14 -42 14 -11 -2 -210 58
-257 78 -8 3 -20 7 -26 8 -6 2 -27 9 -45 18 -77 33 -96 40 -136 53 -38 12 -44
11 -51 -4z"/>
</g>
</svg>
