<?xml version="1.0" standalone="no"?>
<!DOCTYPE svg PUBLIC "-//W3C//DTD SVG 20010904//EN"
 "http://www.w3.org/TR/2001/REC-SVG-20010904/DTD/svg10.dtd">
<svg version="1.0" xmlns="http://www.w3.org/2000/svg"
 width="805.000000pt" height="805.000000pt" viewBox="0 0 805.000000 805.000000"
 preserveAspectRatio="xMidYMid meet">
<metadata>
Created by potrace 1.11, written by Peter Selinger 2001-2013
</metadata>
<g transform="translate(0.000000,805.000000) scale(0.100000,-0.100000)"
fill="#000000" stroke="none">
<path d="M4128 7665 c-6 -5 -114 -16 -208 -20 -178 -8 -295 -15 -320 -19 -14
-3 -47 -7 -75 -10 -63 -8 -102 -13 -140 -20 -16 -3 -48 -8 -70 -11 -383 -57
-949 -229 -1275 -388 -643 -313 -1352 -926 -1718 -1484 -180 -276 -268 -524
-312 -883 -12 -98 -9 -670 4 -740 3 -19 9 -51 12 -70 11 -62 13 -75 38 -173
14 -53 41 -136 61 -184 21 -48 58 -146 82 -217 46 -130 55 -193 40 -282 -21
-128 195 -384 325 -384 53 0 131 -43 174 -95 72 -86 162 -116 334 -111 129 4
236 28 340 77 73 34 209 164 273 261 134 204 131 260 -34 556 -164 295 -257
433 -360 538 -132 135 -248 161 -444 99 -20 -6 -20 -3 -19 132 4 344 16 638
29 718 2 17 7 48 10 70 4 22 17 85 30 140 41 170 43 182 33 199 -5 9 -17 16
-26 16 -24 0 -127 -51 -189 -93 -63 -42 -66 -52 58 158 212 356 464 655 714
846 207 159 818 510 1085 624 178 76 345 127 520 160 14 3 34 7 45 9 48 9 135
17 135 12 0 -3 -16 -31 -35 -63 -39 -65 -43 -89 -17 -97 31 -10 136 -17 487
-31 183 -8 354 -20 416 -31 15 -2 47 -6 70 -9 24 -3 69 -10 99 -15 30 -5 73
-12 95 -15 22 -3 51 -8 65 -10 14 -3 41 -7 60 -10 19 -3 85 -15 145 -26 61
-10 124 -22 140 -25 17 -2 37 -7 45 -9 8 -2 31 -7 50 -10 19 -3 77 -15 128
-26 52 -11 100 -18 108 -15 8 3 14 0 14 -7 0 -22 -58 -131 -104 -197 -115
-161 -132 -190 -176 -295 -18 -43 -21 -164 -6 -217 20 -65 79 -167 134 -231
15 -17 49 -56 76 -86 88 -102 379 -382 440 -425 34 -24 75 -48 92 -54 115 -38
399 68 557 208 119 105 205 295 213 467 4 102 -5 138 -48 199 -45 63 -60 125
-52 221 6 80 5 86 -26 151 -41 81 -125 169 -201 208 -45 23 -68 28 -139 30
-66 1 -97 7 -140 27 -77 35 -187 109 -310 208 -163 132 -341 264 -495 367 -77
52 -174 125 -214 164 -112 104 -263 185 -377 202 -22 4 -51 9 -64 12 -29 6
-177 14 -182 9z"/>
<path d="M6716 5612 c-4 -7 56 -167 94 -249 11 -24 20 -46 20 -49 0 -3 6 -20
14 -37 152 -340 256 -761 284 -1142 15 -209 7 -925 -12 -1035 -3 -14 -7 -47
-11 -75 -17 -138 -82 -393 -167 -655 -54 -169 -135 -395 -159 -447 -10 -24
-19 -47 -19 -53 0 -6 -4 -18 -10 -28 -5 -9 -16 -33 -24 -52 -77 -186 -149
-307 -167 -279 -4 7 1 41 12 76 18 63 44 219 54 318 21 213 21 1133 1 1242 -2
10 -7 54 -11 98 -3 44 -13 126 -21 182 -7 56 -16 123 -19 150 -3 26 -8 60 -10
76 -7 37 -12 74 -19 122 -55 384 -105 635 -127 635 -16 0 -37 -57 -73 -195
-48 -183 -126 -444 -156 -520 -4 -11 -20 -54 -35 -95 -66 -177 -248 -549 -376
-770 -105 -179 -426 -508 -699 -717 -98 -75 -241 -171 -380 -258 -285 -177
-270 -152 -268 -415 0 -102 5 -214 10 -250 21 -134 85 -261 185 -366 136 -144
274 -212 498 -249 73 -12 607 -15 675 -4 90 15 155 41 233 94 167 112 271 234
387 454 30 58 60 106 65 108 6 1 26 -25 45 -58 79 -137 229 -221 453 -252 149
-22 286 -13 381 24 90 36 129 61 265 174 41 35 141 165 170 224 78 156 167
485 196 729 3 26 8 58 10 72 24 135 32 321 29 650 -1 173 -5 326 -7 340 -3 14
-8 57 -12 95 -50 549 -453 1458 -872 1970 -98 121 -365 396 -400 414 -12 6
-24 8 -27 3z"/>
<path d="M4568 5345 c-2 -1 -28 -5 -58 -8 -258 -28 -438 -203 -442 -432 -2
-123 0 -130 42 -184 89 -112 266 -218 530 -317 339 -126 548 -266 714 -479 53
-67 82 -95 100 -95 46 0 78 152 79 375 0 132 -8 200 -38 315 -115 433 -367
733 -667 796 -98 21 -250 38 -260 29z"/>
<path d="M4121 3879 c-111 -21 -319 -190 -413 -334 -100 -154 -110 -254 -34
-330 73 -72 161 -110 261 -114 80 -3 205 23 283 59 80 37 177 132 185 181 7
45 1 346 -7 383 -9 39 -41 98 -63 116 -45 38 -132 54 -212 39z"/>
<path d="M2490 3591 c-278 -88 -445 -468 -364 -830 9 -41 45 -143 62 -176 59
-117 241 -313 391 -419 80 -57 228 -138 301 -166 158 -58 351 -88 386 -59 15
13 3 42 -74 175 -94 164 -132 264 -147 393 -4 30 -8 61 -10 70 -1 9 -6 59 -9
111 -4 52 -9 120 -11 150 -2 30 -7 96 -10 145 -6 89 -7 107 -21 215 -25 206
-84 308 -213 369 -54 25 -73 29 -158 29 -54 0 -109 -3 -123 -7z"/>
<path d="M1735 1579 c-7 -10 -1 -107 11 -199 8 -69 42 -187 70 -249 15 -31 30
-65 34 -76 14 -37 117 -172 166 -219 98 -94 194 -148 398 -225 178 -68 236
-75 471 -56 126 10 432 108 558 179 72 40 192 156 248 238 100 146 139 430 62
450 -10 3 -83 -10 -163 -28 -197 -45 -295 -53 -665 -53 -132 -1 -253 1 -270 3
-16 3 -55 7 -85 10 -144 15 -452 102 -673 192 -108 44 -150 53 -162 33z"/>
</g>
</svg>
